<?xml version="1.0" encoding="utf-8"?>
<!-- Generator: Adobe Illustrator 16.0.0, SVG Export Plug-In . SVG Version: 6.00 Build 0)  -->
<!DOCTYPE svg PUBLIC "-//W3C//DTD SVG 1.1//EN" "http://www.w3.org/Graphics/SVG/1.1/DTD/svg11.dtd">
<svg version="1.1" id="Layer_1" xmlns="http://www.w3.org/2000/svg" xmlns:xlink="http://www.w3.org/1999/xlink" x="0px" y="0px"
	 width="184.548px" height="46.33px" viewBox="0 0 184.548 46.33" enable-background="new 0 0 184.548 46.33" xml:space="preserve">
<g>
	<g>
		<path fill="#3973E7" d="M71.214,11.992c0,0.361,0,0.721,0,1.08c0,1.053-0.045,2.389-0.135,4.006
			c-0.091,1.617-0.264,3.332-0.521,5.143s-0.623,3.635-1.098,5.471c-0.476,1.836-1.092,3.486-1.849,4.951
			c-0.758,1.463-1.67,2.65-2.735,3.563c-1.066,0.912-2.344,1.367-3.833,1.367c-0.796,0-1.483-0.141-2.061-0.424
			c-0.578-0.283-1.124-0.719-1.638-1.309c-0.206-0.207-0.385-0.438-0.539-0.693c-0.154-0.258-0.244-0.539-0.27-0.848
			c0.153-0.283,0.347-0.424,0.577-0.424c0.231,0,0.456,0.115,0.675,0.346c0.218,0.232,0.462,0.482,0.731,0.752
			s0.584,0.52,0.944,0.752c0.359,0.23,0.809,0.346,1.348,0.346c0.976,0,1.816-0.438,2.523-1.311c0.706-0.871,1.31-1.988,1.811-3.35
			s0.905-2.877,1.214-4.547c0.308-1.668,0.545-3.307,0.712-4.912s0.282-3.082,0.347-4.43c0.064-1.35,0.097-2.369,0.097-3.063
			c0-0.514-0.007-1.033-0.02-1.561c-0.013-0.525-0.058-1.047-0.135-1.561c-1.232,0.18-2.459,0.314-3.679,0.404
			s-2.446,0.238-3.679,0.443c-0.231,0.025-0.591,0.084-1.079,0.174c-0.487,0.09-0.976,0.211-1.464,0.365
			c-0.487,0.154-0.911,0.348-1.271,0.578c-0.36,0.23-0.54,0.514-0.54,0.848c0,0.617,0.109,1.182,0.328,1.695
			c0.218,0.514,0.462,0.969,0.731,1.367s0.514,0.732,0.732,1.002c0.218,0.27,0.327,0.48,0.327,0.635c0,0.18-0.09,0.322-0.27,0.424
			h-0.231c-0.283,0-0.539-0.076-0.771-0.23c-0.385-0.256-0.751-0.578-1.098-0.963s-0.655-0.809-0.925-1.271
			s-0.481-0.938-0.636-1.426c-0.153-0.488-0.23-0.963-0.23-1.426c0-0.795,0.243-1.438,0.731-1.926
			c0.487-0.486,1.079-0.879,1.772-1.174s1.425-0.521,2.195-0.676c0.771-0.152,1.451-0.27,2.042-0.346
			c1.13-0.154,2.272-0.289,3.429-0.404c1.155-0.115,2.311-0.23,3.467-0.348c1.155-0.115,2.312-0.262,3.467-0.441
			s2.285-0.412,3.39-0.694c0.18-0.052,0.398-0.122,0.655-0.212s0.52-0.187,0.79-0.289c0.27-0.103,0.525-0.187,0.771-0.251
			c0.243-0.063,0.442-0.096,0.597-0.096c0.282,0,0.449,0.147,0.501,0.442c0.051,0.296,0.077,0.546,0.077,0.752
			c0,0.308-0.058,0.552-0.174,0.732c-0.115,0.18-0.302,0.346-0.559,0.5c-0.282,0.154-0.668,0.295-1.155,0.424
			c-0.488,0.129-1.002,0.244-1.541,0.348c-0.539,0.102-1.072,0.199-1.599,0.289s-0.97,0.199-1.329,0.326
			C71.188,11.273,71.214,11.633,71.214,11.992z"/>
		<path fill="#3973E7" d="M81.21,25.516c-0.476-0.385-0.996-0.668-1.561-0.848c-0.206,0.564-0.431,1.156-0.674,1.771
			c-0.245,0.617-0.521,1.232-0.828,1.85c-0.309,0.615-0.643,1.207-1.002,1.771c-0.36,0.566-0.758,1.066-1.194,1.502
			c-0.129,0.129-0.283,0.258-0.462,0.387c-0.18,0.129-0.372,0.191-0.578,0.191c-0.333,0-0.501-0.166-0.501-0.5
			c0-0.154,0.032-0.303,0.097-0.443s0.147-0.275,0.25-0.404c0.745-1.078,1.444-2.184,2.1-3.313c0.655-1.131,1.06-2.35,1.214-3.66
			c-0.36-0.463-0.617-0.971-0.771-1.523c-0.154-0.551-0.231-1.123-0.231-1.713c0-0.309,0.045-0.707,0.135-1.195
			c0.09-0.486,0.231-0.963,0.424-1.424c0.192-0.463,0.43-0.861,0.713-1.195c0.282-0.334,0.616-0.5,1.001-0.5
			c0.282,0,0.501,0.121,0.655,0.365s0.282,0.527,0.385,0.848c0.103,0.322,0.167,0.648,0.193,0.982
			c0.025,0.334,0.038,0.604,0.038,0.809c0,0.617-0.038,1.232-0.115,1.85c0.308,0.463,0.719,0.842,1.232,1.137
			s1.021,0.615,1.521,0.963c0.501,0.346,0.931,0.77,1.291,1.271c0.359,0.502,0.539,1.176,0.539,2.023
			c0,0.436-0.064,0.938-0.192,1.502c-0.206,0.898-0.386,1.797-0.54,2.695c-0.153,0.9-0.23,1.811-0.23,2.736
			c0,0.256,0.031,0.559,0.096,0.904c0.064,0.348,0.276,0.521,0.636,0.521c0.437,0,0.944-0.219,1.521-0.656
			c0.578-0.436,1.149-0.949,1.715-1.541c0.564-0.59,1.091-1.188,1.579-1.791c0.487-0.604,0.848-1.084,1.079-1.443
			c0.128-0.18,0.275-0.379,0.442-0.598s0.366-0.328,0.598-0.328c0.23,0,0.378,0.084,0.442,0.25c0.064,0.168,0.097,0.354,0.097,0.559
			c0,0.154-0.032,0.297-0.097,0.424c-0.064,0.129-0.135,0.258-0.212,0.387c-0.308,0.488-0.764,1.104-1.367,1.848
			c-0.604,0.746-1.259,1.465-1.965,2.154c-0.706,0.691-1.438,1.281-2.195,1.773c-0.758,0.488-1.445,0.734-2.062,0.734
			c-0.642,0-1.143-0.195-1.502-0.584c-0.36-0.391-0.63-0.859-0.809-1.406c-0.181-0.549-0.289-1.131-0.328-1.746
			c-0.038-0.617-0.058-1.156-0.058-1.619c0-0.719,0.032-1.424,0.097-2.117c0.063-0.693,0.096-1.4,0.096-2.119
			C81.922,26.414,81.685,25.9,81.21,25.516z"/>
		<path fill="#3973E7" d="M91.457,26.652c0.167-1.221,0.43-2.383,0.79-3.488c0.205-0.59,0.545-1.053,1.021-1.387
			c0.475-0.334,1.007-0.5,1.6-0.5c0.59,0,0.886,0.283,0.886,0.848c0,0.205-0.032,0.418-0.097,0.635
			c-0.064,0.219-0.121,0.43-0.173,0.637c-0.206,0.641-0.417,1.348-0.636,2.119c-0.219,0.77-0.411,1.561-0.579,2.369
			c-0.167,0.809-0.308,1.611-0.424,2.408c-0.115,0.795-0.173,1.527-0.173,2.195c0,0.256,0.032,0.578,0.097,0.963
			c0.063,0.385,0.275,0.578,0.636,0.578c0.438,0,0.918-0.199,1.445-0.598c0.525-0.398,1.065-0.912,1.617-1.541
			c0.553-0.629,1.099-1.328,1.638-2.1c0.54-0.77,1.04-1.533,1.503-2.291c0.462-0.758,0.872-1.457,1.232-2.1
			c0.359-0.643,0.616-1.158,0.77-1.543c0.104-0.23,0.206-0.494,0.309-0.789s0.231-0.564,0.385-0.809
			c0.154-0.244,0.341-0.449,0.559-0.617c0.219-0.166,0.494-0.25,0.829-0.25c0.231,0,0.43,0.039,0.597,0.115
			c0.167,0.078,0.25,0.258,0.25,0.539c0,0.258-0.045,0.508-0.135,0.752s-0.173,0.48-0.25,0.713
			c-0.205,0.564-0.404,1.207-0.597,1.926c-0.192,0.721-0.36,1.451-0.501,2.197c-0.142,0.744-0.25,1.488-0.328,2.234
			c-0.076,0.744-0.115,1.412-0.115,2.002c0,0.18,0.014,0.424,0.039,0.732s0.076,0.609,0.154,0.904
			c0.076,0.297,0.192,0.553,0.346,0.771c0.154,0.219,0.359,0.328,0.617,0.328c0.385,0,0.873-0.264,1.463-0.791
			c0.592-0.525,1.182-1.143,1.772-1.848c0.591-0.707,1.137-1.406,1.638-2.1c0.5-0.693,0.854-1.207,1.059-1.541
			c0.129-0.18,0.303-0.418,0.521-0.713s0.442-0.443,0.675-0.443c0.23,0,0.378,0.07,0.442,0.211c0.063,0.143,0.097,0.316,0.097,0.521
			c0,0.129-0.033,0.264-0.097,0.404c-0.064,0.141-0.122,0.275-0.173,0.404c-0.309,0.615-0.771,1.355-1.387,2.215
			c-0.617,0.861-1.311,1.689-2.08,2.484c-0.771,0.797-1.567,1.477-2.389,2.041c-0.822,0.566-1.605,0.848-2.35,0.848
			c-0.592,0-1.055-0.205-1.388-0.615c-0.334-0.412-0.591-0.898-0.771-1.465c-0.18-0.564-0.289-1.16-0.327-1.791
			c-0.038-0.629-0.058-1.148-0.058-1.561c0-0.256,0-0.5,0-0.73c0-0.232,0.025-0.477,0.076-0.732
			c-0.385,0.539-0.854,1.168-1.405,1.887c-0.553,0.721-1.162,1.4-1.83,2.043s-1.367,1.188-2.099,1.637
			c-0.732,0.449-1.459,0.674-2.179,0.674c-0.693,0-1.227-0.193-1.598-0.578c-0.373-0.385-0.643-0.854-0.81-1.406
			c-0.167-0.551-0.27-1.143-0.308-1.771c-0.039-0.629-0.058-1.188-0.058-1.676C91.207,29.059,91.29,27.871,91.457,26.652z"/>
		<path fill="#3973E7" d="M112.394,35.281c-0.539-0.295-0.982-0.682-1.328-1.156c-0.348-0.475-0.598-1.027-0.752-1.656
			s-0.23-1.291-0.23-1.984c0-0.873,0.166-1.926,0.5-3.158s0.809-2.42,1.426-3.564c0.616-1.143,1.354-2.111,2.215-2.908
			c0.86-0.797,1.804-1.195,2.832-1.195c0.693,0,1.226,0.221,1.598,0.658c0.373,0.438,0.559,0.99,0.559,1.66
			c0,0.645-0.199,1.359-0.597,2.145c-0.398,0.785-0.899,1.545-1.503,2.279s-1.252,1.385-1.945,1.951s-1.335,0.953-1.926,1.158
			c-0.129,0.592-0.192,1.133-0.192,1.621c0,0.877,0.192,1.566,0.577,2.068c0.386,0.502,1.027,0.752,1.927,0.752
			c0.821,0,1.592-0.16,2.312-0.48c0.719-0.322,1.387-0.732,2.003-1.232c0.616-0.502,1.181-1.072,1.694-1.715s0.964-1.283,1.35-1.926
			c0.127-0.205,0.281-0.424,0.461-0.656c0.18-0.23,0.411-0.346,0.693-0.346c0.129,0,0.251,0.039,0.367,0.115
			c0.115,0.078,0.173,0.18,0.173,0.309c0,0.256-0.026,0.463-0.077,0.615c-0.052,0.154-0.142,0.334-0.27,0.541
			c-0.488,0.873-1.086,1.707-1.791,2.504c-0.707,0.795-1.483,1.492-2.331,2.09c-0.847,0.6-1.759,1.074-2.735,1.426
			s-1.99,0.529-3.043,0.529C113.588,35.725,112.933,35.576,112.394,35.281z M115.707,22.264c-0.385,0.557-0.744,1.201-1.078,1.938
			c-0.334,0.738-0.616,1.475-0.848,2.211c-0.23,0.736-0.372,1.271-0.424,1.607c0.411-0.258,0.861-0.602,1.349-1.027
			s0.938-0.904,1.349-1.434c0.41-0.529,0.757-1.072,1.04-1.629c0.282-0.555,0.423-1.09,0.423-1.607c0-0.207-0.045-0.406-0.135-0.6
			c-0.09-0.195-0.264-0.291-0.52-0.291C116.478,21.432,116.092,21.709,115.707,22.264z"/>
		<path fill="#3973E7" d="M133.312,22.51c-0.488,0.539-1.015,1.232-1.58,2.08c-0.564,0.848-1.154,1.779-1.771,2.793
			c-0.616,1.016-1.188,1.998-1.715,2.947c-0.525,0.951-0.988,1.805-1.387,2.563s-0.674,1.303-0.828,1.637
			c-0.103,0.23-0.225,0.477-0.365,0.732c-0.142,0.256-0.296,0.5-0.463,0.732c-0.167,0.23-0.365,0.424-0.597,0.576
			c-0.231,0.154-0.488,0.232-0.771,0.232c-0.283,0-0.508-0.084-0.674-0.25c-0.168-0.168-0.303-0.367-0.404-0.598
			c-0.104-0.23-0.168-0.482-0.193-0.752s-0.038-0.506-0.038-0.713c0-0.666,0.052-1.328,0.153-1.982
			c0.104-0.656,0.193-1.316,0.271-1.984c0.153-1.232,0.302-2.453,0.442-3.66s0.276-2.428,0.404-3.66
			c0.154-1.387,0.341-2.953,0.559-4.699c0.219-1.746,0.482-3.512,0.791-5.297c0.308-1.785,0.68-3.506,1.116-5.163
			c0.437-1.656,0.964-3.088,1.579-4.295c0.154-0.309,0.341-0.616,0.559-0.925c0.219-0.308,0.463-0.597,0.732-0.866
			c0.27-0.271,0.571-0.488,0.905-0.655c0.333-0.167,0.681-0.25,1.04-0.25c0.437,0,0.789,0.128,1.06,0.385
			c0.27,0.257,0.481,0.572,0.636,0.943c0.154,0.373,0.256,0.771,0.309,1.194c0.051,0.424,0.076,0.79,0.076,1.099
			c0,2.876-0.43,5.675-1.291,8.398c-0.859,2.723-1.932,5.354-3.216,7.896c-0.308,0.617-0.63,1.221-0.963,1.811
			c-0.335,0.592-0.655,1.182-0.964,1.771c-0.076,0.156-0.173,0.521-0.289,1.1c-0.115,0.578-0.23,1.213-0.346,1.906
			s-0.219,1.355-0.309,1.984s-0.16,1.072-0.212,1.328c0.231-0.512,0.552-1.148,0.964-1.906c0.41-0.758,0.872-1.566,1.387-2.426
			c0.513-0.861,1.071-1.715,1.676-2.564c0.603-0.846,1.219-1.617,1.849-2.311c0.629-0.693,1.271-1.252,1.926-1.676
			s1.277-0.635,1.868-0.635c0.437,0,0.796,0.115,1.079,0.346c0.282,0.23,0.507,0.52,0.674,0.867
			c0.167,0.346,0.282,0.719,0.347,1.117s0.097,0.777,0.097,1.137c0,1.617-0.122,3.23-0.366,4.834
			c-0.244,1.605-0.365,3.217-0.365,4.836c0,0.18,0.006,0.373,0.019,0.578s0.052,0.391,0.116,0.559
			c0.063,0.166,0.166,0.307,0.308,0.424c0.141,0.115,0.34,0.172,0.597,0.172c0.539,0,1.111-0.217,1.715-0.654
			c0.604-0.436,1.188-0.949,1.752-1.541c0.564-0.59,1.092-1.207,1.58-1.85c0.487-0.641,0.859-1.168,1.117-1.578
			c0.102-0.154,0.236-0.354,0.404-0.598c0.166-0.244,0.365-0.365,0.598-0.365c0.23,0,0.385,0.076,0.462,0.23
			s0.115,0.334,0.115,0.539c0,0.129-0.026,0.238-0.077,0.328c-0.052,0.09-0.103,0.186-0.154,0.289
			c-0.385,0.744-0.898,1.553-1.541,2.426c-0.642,0.873-1.361,1.689-2.156,2.447c-0.797,0.758-1.65,1.387-2.563,1.887
			c-0.912,0.502-1.816,0.752-2.715,0.752c-0.54,0-0.944-0.207-1.214-0.617c-0.271-0.41-0.47-0.898-0.597-1.463
			c-0.129-0.564-0.199-1.15-0.213-1.754c-0.013-0.604-0.02-1.084-0.02-1.443c0-1.387,0.071-2.773,0.213-4.16
			c0.141-1.389,0.275-2.775,0.404-4.162v-0.309c0-0.129-0.014-0.314-0.039-0.559s-0.141-0.365-0.346-0.365
			C134.185,21.701,133.799,21.971,133.312,22.51z M130.095,4.173c-0.373,0.771-0.732,1.759-1.078,2.966
			c-0.348,1.208-0.668,2.537-0.963,3.988c-0.296,1.451-0.553,2.85-0.771,4.199c-0.218,1.348-0.398,2.555-0.539,3.621
			c-0.141,1.064-0.225,1.816-0.25,2.252c0.59-1.053,1.194-2.271,1.811-3.658s1.175-2.826,1.676-4.314
			c0.5-1.49,0.918-2.967,1.252-4.432c0.334-1.463,0.5-2.786,0.5-3.967c0-0.077,0-0.218,0-0.424c0-0.205-0.019-0.41-0.057-0.616
			c-0.039-0.205-0.084-0.385-0.135-0.539c-0.053-0.154-0.143-0.231-0.27-0.231C130.859,3.017,130.467,3.403,130.095,4.173z"/>
		<path fill="#3973E7" d="M161.067,29.791c-0.219,0.309-0.392,0.566-0.521,0.771c-0.359,0.488-0.796,1.053-1.31,1.693
			c-0.515,0.643-1.072,1.246-1.676,1.811c-0.604,0.566-1.245,1.041-1.926,1.426s-1.354,0.578-2.022,0.578
			c-0.643,0-1.156-0.225-1.541-0.674s-0.681-0.988-0.887-1.617c-0.205-0.631-0.334-1.285-0.385-1.965
			c-0.051-0.682-0.064-1.252-0.038-1.715c-0.257,0.385-0.585,0.867-0.982,1.445c-0.398,0.576-0.841,1.135-1.329,1.676
			c-0.488,0.539-0.996,1-1.521,1.387c-0.527,0.385-1.047,0.576-1.561,0.576c-0.462,0-0.848-0.141-1.155-0.424
			c-0.308-0.281-0.546-0.629-0.713-1.039s-0.282-0.848-0.347-1.311c-0.064-0.461-0.096-0.873-0.096-1.232
			c0-1.002,0.243-2.145,0.731-3.428c0.487-1.285,1.136-2.498,1.945-3.643c0.81-1.141,1.733-2.098,2.773-2.869
			c1.04-0.77,2.125-1.156,3.255-1.156c0.283,0,0.564,0.129,0.848,0.387c0.283,0.256,0.424,0.525,0.424,0.809
			c0,0.129-0.039,0.225-0.115,0.289c-0.077,0.064-0.168,0.121-0.27,0.172c-0.693,0.412-1.355,0.842-1.984,1.291
			s-1.227,0.971-1.791,1.561c-1.002,1.029-1.798,2.178-2.389,3.449s-0.886,2.639-0.886,4.102c0,0.154,0.025,0.348,0.077,0.578
			c0.051,0.23,0.192,0.348,0.424,0.348c0.282,0,0.604-0.174,0.963-0.521c0.359-0.346,0.732-0.783,1.117-1.309
			c0.385-0.527,0.764-1.117,1.137-1.773c0.371-0.654,0.725-1.289,1.059-1.906c0.334-0.615,0.623-1.188,0.867-1.715
			c0.244-0.525,0.43-0.916,0.559-1.174c0.128-0.283,0.289-0.547,0.481-0.791s0.468-0.365,0.828-0.365
			c0.206,0,0.405,0.037,0.597,0.115c0.193,0.076,0.289,0.244,0.289,0.5c0,0.283-0.09,0.656-0.27,1.119
			c-0.18,0.461-0.321,0.834-0.424,1.117c-0.205,0.668-0.354,1.381-0.443,2.137c-0.09,0.758-0.135,1.471-0.135,2.139
			c0,0.205,0.007,0.514,0.02,0.924c0.014,0.412,0.059,0.828,0.135,1.252c0.078,0.424,0.199,0.797,0.366,1.117
			c0.167,0.322,0.405,0.482,0.713,0.482c0.462,0,0.976-0.205,1.541-0.617c0.564-0.41,1.116-0.891,1.656-1.443
			c0.539-0.553,1.04-1.123,1.503-1.715c0.462-0.59,0.809-1.064,1.039-1.426c0.129-0.205,0.27-0.416,0.424-0.635
			s0.373-0.328,0.655-0.328c0.411,0,0.616,0.244,0.616,0.732C161.394,29.213,161.285,29.482,161.067,29.791z"/>
		<path fill="#3973E7" d="M162.722,36.031c-0.5-0.461-0.931-1.059-1.29-1.791c-0.36-0.732-0.642-1.553-0.848-2.465
			s-0.36-1.824-0.462-2.734c-0.104-0.912-0.174-1.766-0.212-2.563c-0.038-0.795-0.058-1.438-0.058-1.928
			c0-2.695,0.218-5.359,0.654-7.992s1.194-5.195,2.273-7.686c0.205-0.463,0.487-1.014,0.848-1.657
			c0.359-0.642,0.775-1.265,1.252-1.868c0.475-0.604,0.988-1.11,1.541-1.521c0.551-0.411,1.109-0.616,1.676-0.616
			c0.461,0,0.84,0.109,1.136,0.327c0.295,0.219,0.526,0.501,0.693,0.848s0.289,0.726,0.366,1.136
			c0.076,0.411,0.115,0.797,0.115,1.156c0,1.207-0.142,2.516-0.424,3.928c-0.283,1.414-0.654,2.826-1.117,4.238
			c-0.462,1.412-0.977,2.787-1.541,4.121c-0.564,1.336-1.143,2.531-1.732,3.584c-0.283,0.514-0.585,1.008-0.906,1.482
			s-0.635,0.971-0.943,1.484c-0.104,0.154-0.225,0.334-0.366,0.539s-0.237,0.398-0.289,0.578c-0.077,0.205-0.122,0.48-0.135,0.828
			c-0.013,0.346-0.019,0.635-0.019,0.867c0,0.385,0.025,0.918,0.076,1.598c0.051,0.682,0.167,1.355,0.348,2.023
			c0.179,0.668,0.424,1.246,0.731,1.732c0.308,0.488,0.731,0.732,1.271,0.732c0.463,0,0.963-0.174,1.503-0.52
			c0.539-0.348,1.06-0.771,1.56-1.271c0.502-0.502,0.963-1.021,1.387-1.561s0.765-0.988,1.021-1.348
			c0.18-0.258,0.347-0.521,0.501-0.791c0.153-0.27,0.321-0.531,0.501-0.789c0.102-0.154,0.211-0.283,0.327-0.385
			c0.115-0.104,0.275-0.154,0.481-0.154c0.205,0,0.347,0.07,0.424,0.211c0.077,0.143,0.115,0.303,0.115,0.482
			c0,0.258-0.064,0.5-0.192,0.732c-0.129,0.23-0.257,0.449-0.386,0.654c-0.385,0.617-0.866,1.336-1.443,2.156
			c-0.578,0.822-1.228,1.594-1.946,2.313c-0.72,0.719-1.478,1.328-2.272,1.83c-0.797,0.5-1.593,0.75-2.389,0.75
			C163.833,36.725,163.224,36.494,162.722,36.031z M167.056,5.733c-0.359,0.45-0.674,0.97-0.943,1.561s-0.501,1.195-0.693,1.81
			c-0.193,0.617-0.341,1.078-0.443,1.387c-0.539,1.773-1.034,3.666-1.482,5.682c-0.45,2.018-0.675,3.949-0.675,5.799
			c0,0.205,0,0.398,0,0.578c0,0.154,0.013,0.334,0.038,0.539c0.617-1.053,1.277-2.279,1.984-3.68
			c0.706-1.398,1.348-2.85,1.926-4.354c0.578-1.502,1.06-2.998,1.445-4.486c0.385-1.49,0.578-2.851,0.578-4.083
			c0-0.077,0-0.193,0-0.347c0-0.18-0.02-0.347-0.059-0.501s-0.096-0.289-0.174-0.404c-0.076-0.116-0.191-0.174-0.346-0.174
			C167.8,5.059,167.416,5.285,167.056,5.733z"/>
		<path fill="#3973E7" d="M179.73,28.059c0.309,0.668,0.553,1.373,0.732,2.117c0.18,0.746,0.308,1.49,0.385,2.234
			c0.077,0.746,0.115,1.426,0.115,2.043c0,0.949-0.096,2.047-0.289,3.293c-0.191,1.246-0.533,2.428-1.021,3.545
			s-1.136,2.061-1.945,2.83c-0.809,0.771-1.829,1.156-3.063,1.156c-0.539,0-0.995-0.188-1.367-0.559
			c-0.372-0.373-0.681-0.861-0.925-1.465s-0.43-1.27-0.559-2.002s-0.225-1.451-0.289-2.158c-0.064-0.705-0.103-1.373-0.115-2.002
			c-0.014-0.631-0.02-1.125-0.02-1.484c0-5.393,0.482-10.625,1.445-15.697s2.407-10.113,4.333-15.121
			c0.128-0.282,0.257-0.564,0.386-0.848c0.128-0.282,0.295-0.539,0.5-0.771c0.154-0.154,0.354-0.314,0.598-0.481
			s0.507-0.314,0.789-0.443c0.283-0.128,0.564-0.23,0.848-0.308s0.539-0.115,0.771-0.115c0.359,0,0.609,0.115,0.75,0.347
			c0.141,0.23,0.213,0.5,0.213,0.809c0,0.257-0.033,0.495-0.097,0.713c-0.064,0.218-0.148,0.43-0.251,0.636
			c-0.334,0.745-0.688,1.482-1.059,2.215c-0.373,0.731-0.727,1.47-1.06,2.215c-1.079,2.49-2.029,5.027-2.851,7.607
			c-0.822,2.582-1.451,5.221-1.888,7.916c0.205,0.078,0.476,0.143,0.81,0.193c0.333,0.051,0.68,0.09,1.039,0.115
			c0.359,0.027,0.713,0.047,1.06,0.059c0.347,0.014,0.636,0.02,0.866,0.02c0.334,0,0.656-0.014,0.964-0.039s0.616-0.064,0.925-0.115
			c0.205-0.053,0.404-0.098,0.597-0.135c0.192-0.039,0.392-0.059,0.597-0.059c0.154,0,0.302,0.025,0.443,0.076
			c0.141,0.053,0.212,0.182,0.212,0.387c0,0.488-0.135,0.848-0.404,1.078c-0.271,0.232-0.597,0.387-0.982,0.463
			s-0.796,0.109-1.233,0.096c-0.437-0.012-0.822-0.02-1.154-0.02C179.023,26.838,179.421,27.391,179.73,28.059z M173.49,32.564
			c-0.206,1.799-0.309,3.607-0.309,5.432c0,0.283,0.013,0.738,0.039,1.367c0.025,0.629,0.096,1.277,0.211,1.945
			c0.116,0.668,0.283,1.252,0.502,1.754c0.217,0.5,0.506,0.75,0.866,0.75c0.462,0,0.872-0.205,1.232-0.615
			c0.359-0.412,0.668-0.9,0.925-1.465c0.256-0.564,0.469-1.143,0.636-1.732c0.167-0.592,0.275-1.053,0.327-1.387
			c0.103-0.514,0.174-1.021,0.212-1.521c0.038-0.502,0.058-1.008,0.058-1.521v-0.117c0-0.77-0.07-1.564-0.211-2.387
			c-0.143-0.822-0.367-1.605-0.675-2.352c-0.308-0.744-0.713-1.424-1.214-2.041c-0.5-0.615-1.123-1.117-1.867-1.502
			C173.939,28.969,173.695,30.768,173.49,32.564z"/>
	</g>
	<path fill="#3973E7" d="M43.413,11.83c-1.502-4.692-4.868-7.599-9.736-8.408c-4.015-0.666-7.605,0.48-10.54,3.355
		c-1.278-1.264-2.756-2.193-4.481-2.825c-1.305-0.479-2.674-0.721-4.068-0.721c-5.889,0-11.099,4.294-12.12,9.989
		c-0.771,4.309,0.396,8.07,3.468,11.182c2.965,3.004,5.934,6.002,8.902,9.002l6.791,6.863c0.048,0.051,0.086,0.113,0.134,0.18
		c0.058,0.08,0.12,0.166,0.189,0.258l1.005,1.313l1.563-1.623c0.241-0.252,0.457-0.479,0.676-0.699
		c1.524-1.541,3.051-3.078,4.577-4.615c3.489-3.514,7.097-7.148,10.617-10.754C43.85,20.783,44.895,16.463,43.413,11.83z
		 M38.358,22.34c-3.513,3.598-7.115,7.227-10.601,10.738c-1.527,1.537-3.055,3.076-4.58,4.617c-0.016,0.016-0.031,0.031-0.047,0.047
		l-6.272-6.338c-2.968-2.998-5.936-5.996-8.9-8.998c-2.419-2.451-3.3-5.291-2.692-8.684c0.781-4.361,4.789-7.649,9.322-7.649
		c1.06,0,2.1,0.184,3.091,0.547c1.601,0.587,2.928,1.515,4.049,2.819c-0.869,0.662-3.208,1.436-7.133,1.332
		c-0.56-0.016-1.079,0.449-1.094,1.037c-0.016,0.588,0.448,1.078,1.037,1.094c0.244,0.008,0.489,0.01,0.736,0.01
		c2.989,0,6.13-0.498,7.791-1.813l0.001,0.002l0.009-0.01c0.006-0.006,0.012-0.01,0.018-0.016c1.375,2.805,2.115,6.098,4.325,8.293
		c2.031,2.016,4.921,1.744,6.742-0.381c0.889-1.035-0.612-2.551-1.507-1.506c-2.543,2.965-4.748-0.695-5.698-3.01
		c-0.723-1.762-1.395-3.49-2.342-5.123c2.383-2.623,5.275-3.676,8.6-3.124c3.801,0.632,6.322,2.809,7.494,6.469
		C41.863,16.314,41.074,19.559,38.358,22.34z"/>
</g>
</svg>
