<?xml version="1.0" encoding="utf-8"?>
<!-- Generator: Adobe Illustrator 16.0.0, SVG Export Plug-In . SVG Version: 6.00 Build 0)  -->
<!DOCTYPE svg PUBLIC "-//W3C//DTD SVG 1.1//EN" "http://www.w3.org/Graphics/SVG/1.1/DTD/svg11.dtd">
<svg version="1.1" id="Layer_1" xmlns="http://www.w3.org/2000/svg" xmlns:xlink="http://www.w3.org/1999/xlink" x="0px" y="0px"
	 width="323.908px" height="78.868px" viewBox="0 0 323.908 78.868" enable-background="new 0 0 323.908 78.868"
	 xml:space="preserve">
<g>
	<g>
		<path fill="#FFFFFF" d="M124.396,19.51c0,0.643,0,1.284,0,1.924c0,1.879-0.08,4.26-0.24,7.144
			c-0.161,2.886-0.47,5.944-0.927,9.173c-0.458,3.228-1.111,6.48-1.958,9.755c-0.848,3.273-1.947,6.217-3.297,8.828
			c-1.352,2.611-2.978,4.729-4.878,6.355c-1.9,1.625-4.18,2.438-6.835,2.438c-1.419,0-2.645-0.252-3.675-0.756
			c-1.031-0.505-2.005-1.281-2.92-2.336c-0.368-0.367-0.687-0.779-0.962-1.236s-0.436-0.961-0.481-1.512
			c0.274-0.503,0.618-0.756,1.03-0.756c0.413,0,0.812,0.206,1.202,0.619c0.389,0.412,0.825,0.857,1.306,1.339
			c0.48,0.48,1.042,0.928,1.683,1.341c0.641,0.411,1.443,0.619,2.405,0.619c1.74,0,3.24-0.781,4.5-2.338
			c1.259-1.555,2.335-3.548,3.229-5.976c0.892-2.427,1.614-5.129,2.164-8.106c0.55-2.977,0.973-5.897,1.271-8.761
			c0.298-2.861,0.503-5.495,0.618-7.9c0.114-2.405,0.172-4.225,0.172-5.461c0-0.917-0.011-1.843-0.034-2.783
			c-0.023-0.937-0.102-1.866-0.24-2.781c-2.199,0.32-4.386,0.56-6.561,0.721c-2.176,0.161-4.363,0.424-6.562,0.791
			c-0.412,0.046-1.054,0.148-1.924,0.309c-0.87,0.162-1.74,0.377-2.61,0.653c-0.87,0.275-1.626,0.619-2.267,1.032
			c-0.642,0.411-0.962,0.916-0.962,1.51c0,1.101,0.194,2.107,0.584,3.023c0.388,0.916,0.824,1.729,1.305,2.438
			c0.48,0.71,0.915,1.307,1.306,1.787c0.389,0.481,0.583,0.858,0.583,1.134c0,0.32-0.161,0.573-0.48,0.756h-0.412
			c-0.505,0-0.962-0.138-1.374-0.413c-0.688-0.457-1.339-1.032-1.958-1.718s-1.168-1.442-1.649-2.267
			c-0.48-0.824-0.858-1.67-1.134-2.541c-0.274-0.871-0.412-1.717-0.412-2.543c0-1.419,0.434-2.563,1.305-3.435
			c0.869-0.869,1.924-1.569,3.16-2.095c1.237-0.525,2.542-0.928,3.916-1.203c1.374-0.273,2.588-0.481,3.641-0.619
			c2.016-0.273,4.054-0.514,6.115-0.721c2.061-0.206,4.122-0.411,6.183-0.619c2.061-0.205,4.122-0.468,6.183-0.789
			c2.061-0.32,4.075-0.733,6.045-1.237c0.32-0.092,0.709-0.218,1.167-0.377c0.458-0.161,0.928-0.333,1.409-0.516
			c0.48-0.183,0.938-0.333,1.375-0.447c0.435-0.113,0.79-0.171,1.064-0.171c0.504,0,0.801,0.263,0.893,0.789
			c0.091,0.528,0.137,0.974,0.137,1.341c0,0.548-0.102,0.984-0.308,1.304c-0.207,0.32-0.54,0.618-0.996,0.894
			c-0.505,0.275-1.192,0.526-2.062,0.756c-0.871,0.229-1.786,0.435-2.749,0.618c-0.961,0.183-1.913,0.355-2.851,0.516
			s-1.729,0.355-2.37,0.583C124.351,18.228,124.396,18.869,124.396,19.51z"/>
		<path fill="#FFFFFF" d="M142.224,43.624c-0.849-0.686-1.776-1.189-2.783-1.512c-0.367,1.009-0.767,2.063-1.202,3.162
			c-0.437,1.098-0.927,2.197-1.477,3.296c-0.551,1.099-1.146,2.154-1.788,3.161c-0.642,1.008-1.352,1.9-2.129,2.679
			c-0.229,0.23-0.505,0.46-0.825,0.688c-0.319,0.229-0.664,0.342-1.032,0.342c-0.593,0-0.892-0.297-0.892-0.893
			c0-0.275,0.057-0.538,0.171-0.789c0.115-0.252,0.264-0.492,0.446-0.723c1.328-1.923,2.576-3.893,3.745-5.908
			c1.167-2.014,1.889-4.189,2.164-6.525c-0.642-0.826-1.1-1.73-1.374-2.715c-0.275-0.984-0.412-2.003-0.412-3.057
			c0-0.55,0.079-1.259,0.24-2.13c0.16-0.869,0.412-1.717,0.755-2.542c0.344-0.825,0.767-1.534,1.271-2.13
			c0.503-0.596,1.099-0.894,1.786-0.894c0.503,0,0.894,0.218,1.168,0.653c0.275,0.435,0.504,0.939,0.687,1.512
			c0.184,0.573,0.298,1.157,0.345,1.75c0.045,0.598,0.068,1.079,0.068,1.444c0,1.099-0.068,2.198-0.207,3.297
			c0.55,0.826,1.283,1.501,2.199,2.027c0.916,0.528,1.819,1.099,2.713,1.718c0.894,0.618,1.66,1.374,2.301,2.267
			c0.641,0.895,0.961,2.096,0.961,3.607c0,0.779-0.115,1.672-0.343,2.679c-0.367,1.604-0.687,3.206-0.962,4.809
			c-0.274,1.604-0.412,3.229-0.412,4.878c0,0.459,0.056,0.996,0.171,1.615c0.114,0.617,0.492,0.928,1.133,0.928
			c0.779,0,1.684-0.388,2.714-1.168c1.031-0.779,2.049-1.693,3.057-2.749c1.007-1.052,1.946-2.117,2.817-3.194
			c0.869-1.076,1.51-1.935,1.923-2.575c0.228-0.32,0.491-0.675,0.79-1.065c0.297-0.389,0.653-0.584,1.065-0.584
			c0.412,0,0.675,0.149,0.79,0.445c0.115,0.301,0.171,0.631,0.171,0.996c0,0.275-0.057,0.528-0.171,0.757
			c-0.115,0.229-0.24,0.459-0.377,0.688c-0.549,0.87-1.363,1.97-2.439,3.297c-1.077,1.329-2.244,2.61-3.503,3.843
			c-1.261,1.232-2.566,2.284-3.916,3.16c-1.351,0.873-2.577,1.311-3.675,1.311c-1.146,0-2.039-0.348-2.68-1.043
			c-0.642-0.695-1.122-1.53-1.441-2.508c-0.322-0.977-0.516-2.014-0.585-3.113c-0.068-1.1-0.103-2.061-0.103-2.886
			c0-1.282,0.057-2.542,0.172-3.778c0.114-1.236,0.171-2.495,0.171-3.779C143.494,45.229,143.07,44.312,142.224,43.624z"/>
		<path fill="#FFFFFF" d="M160.498,45.651c0.296-2.175,0.766-4.247,1.408-6.217c0.367-1.054,0.973-1.877,1.821-2.473
			c0.846-0.595,1.794-0.893,2.85-0.893c1.053,0,1.58,0.505,1.58,1.511c0,0.367-0.058,0.746-0.173,1.134
			c-0.114,0.389-0.216,0.767-0.309,1.134c-0.367,1.144-0.743,2.403-1.133,3.777c-0.392,1.374-0.733,2.783-1.032,4.226
			c-0.298,1.444-0.548,2.875-0.755,4.295c-0.206,1.419-0.309,2.726-0.309,3.915c0,0.458,0.058,1.031,0.172,1.717
			c0.114,0.688,0.491,1.031,1.132,1.031c0.78,0,1.638-0.354,2.578-1.065c0.938-0.709,1.9-1.625,2.885-2.747
			c0.985-1.121,1.959-2.37,2.921-3.744s1.854-2.736,2.68-4.088c0.823-1.352,1.556-2.599,2.198-3.744
			c0.641-1.145,1.1-2.063,1.372-2.749c0.185-0.413,0.368-0.881,0.551-1.409c0.183-0.526,0.413-1.007,0.687-1.442
			c0.274-0.435,0.607-0.801,0.996-1.098c0.39-0.298,0.881-0.448,1.477-0.448c0.414,0,0.768,0.069,1.066,0.207
			c0.297,0.138,0.445,0.458,0.445,0.961c0,0.458-0.081,0.906-0.24,1.34c-0.16,0.435-0.309,0.858-0.445,1.271
			c-0.367,1.009-0.723,2.151-1.065,3.435s-0.643,2.588-0.894,3.916c-0.252,1.329-0.445,2.656-0.585,3.984
			c-0.136,1.33-0.205,2.52-0.205,3.572c0,0.321,0.024,0.756,0.069,1.305c0.045,0.551,0.136,1.089,0.275,1.615
			c0.135,0.527,0.344,0.986,0.617,1.374c0.274,0.39,0.64,0.585,1.101,0.585c0.687,0,1.556-0.471,2.608-1.409
			c1.055-0.938,2.107-2.038,3.16-3.297c1.055-1.259,2.027-2.508,2.922-3.745c0.891-1.236,1.521-2.152,1.888-2.748
			c0.229-0.319,0.54-0.743,0.928-1.271c0.388-0.526,0.79-0.792,1.204-0.792c0.41,0,0.674,0.128,0.788,0.379
			c0.114,0.253,0.173,0.563,0.173,0.928c0,0.23-0.059,0.471-0.173,0.723s-0.218,0.492-0.308,0.72
			c-0.551,1.099-1.376,2.417-2.473,3.95c-1.102,1.536-2.338,3.013-3.71,4.433c-1.376,1.419-2.796,2.634-4.261,3.64
			c-1.466,1.009-2.863,1.512-4.189,1.512c-1.056,0-1.881-0.367-2.476-1.1s-1.054-1.602-1.374-2.609s-0.516-2.07-0.582-3.194
			c-0.069-1.122-0.104-2.05-0.104-2.783c0-0.456,0-0.894,0-1.305c0-0.413,0.045-0.849,0.136-1.306
			c-0.687,0.963-1.522,2.084-2.507,3.366c-0.985,1.283-2.072,2.497-3.264,3.642c-1.19,1.146-2.438,2.119-3.742,2.919
			c-1.307,0.802-2.602,1.204-3.884,1.204c-1.237,0-2.187-0.346-2.849-1.032c-0.666-0.688-1.146-1.521-1.444-2.507
			c-0.298-0.984-0.48-2.038-0.549-3.16c-0.068-1.121-0.103-2.117-0.103-2.988C160.051,49.944,160.199,47.827,160.498,45.651z"/>
		<path fill="#FFFFFF" d="M197.836,61.04c-0.962-0.525-1.752-1.213-2.368-2.061c-0.621-0.848-1.066-1.832-1.342-2.955
			c-0.275-1.121-0.41-2.301-0.41-3.537c0-1.557,0.295-3.436,0.892-5.634c0.595-2.198,1.441-4.315,2.542-6.355
			c1.1-2.036,2.414-3.765,3.95-5.186c1.534-1.42,3.216-2.13,5.05-2.13c1.238,0,2.187,0.392,2.85,1.172
			c0.666,0.78,0.997,1.768,0.997,2.961c0,1.149-0.356,2.424-1.065,3.824c-0.709,1.401-1.604,2.755-2.68,4.063
			c-1.076,1.311-2.232,2.47-3.469,3.48c-1.236,1.01-2.381,1.699-3.435,2.065c-0.231,1.058-0.343,2.021-0.343,2.893
			c0,1.562,0.343,2.792,1.029,3.687c0.687,0.896,1.831,1.344,3.436,1.344c1.465,0,2.84-0.286,4.122-0.859
			c1.282-0.572,2.474-1.307,3.573-2.198c1.098-0.893,2.105-1.912,3.021-3.058c0.915-1.145,1.719-2.289,2.406-3.435
			c0.227-0.366,0.501-0.756,0.822-1.169c0.32-0.411,0.733-0.618,1.236-0.618c0.229,0,0.447,0.069,0.654,0.207
			s0.309,0.321,0.309,0.549c0,0.458-0.047,0.825-0.137,1.099c-0.093,0.275-0.253,0.596-0.482,0.963
			c-0.869,1.559-1.936,3.047-3.192,4.467c-1.262,1.418-2.646,2.662-4.158,3.729c-1.51,1.066-3.137,1.916-4.878,2.542
			c-1.742,0.628-3.55,0.942-5.427,0.942C199.966,61.831,198.798,61.566,197.836,61.04z M203.744,37.829
			c-0.687,0.991-1.328,2.142-1.925,3.456c-0.594,1.313-1.099,2.626-1.51,3.939c-0.412,1.313-0.664,2.268-0.757,2.866
			c0.733-0.46,1.536-1.071,2.406-1.831c0.868-0.761,1.671-1.612,2.404-2.556c0.731-0.946,1.35-1.913,1.854-2.904
			c0.504-0.989,0.755-1.945,0.755-2.867c0-0.369-0.08-0.726-0.241-1.071c-0.159-0.346-0.47-0.52-0.926-0.52
			C205.119,36.342,204.431,36.839,203.744,37.829z"/>
		<path fill="#FFFFFF" d="M235.142,38.265c-0.871,0.963-1.811,2.2-2.818,3.71c-1.007,1.512-2.059,3.173-3.159,4.98
			c-1.099,1.812-2.118,3.562-3.06,5.256c-0.936,1.695-1.762,3.219-2.472,4.568c-0.711,1.352-1.202,2.325-1.478,2.921
			c-0.183,0.411-0.4,0.849-0.65,1.306c-0.253,0.457-0.528,0.893-0.826,1.305c-0.299,0.411-0.65,0.756-1.064,1.029
			c-0.412,0.275-0.871,0.413-1.374,0.413c-0.505,0-0.905-0.149-1.201-0.445c-0.3-0.3-0.54-0.653-0.722-1.066
			c-0.184-0.411-0.3-0.858-0.344-1.339c-0.046-0.48-0.068-0.904-0.068-1.271c0-1.189,0.092-2.37,0.273-3.537
			c0.185-1.169,0.344-2.348,0.482-3.539c0.273-2.197,0.539-4.373,0.789-6.525c0.25-2.153,0.492-4.328,0.721-6.529
			c0.275-2.472,0.607-5.264,0.996-8.38c0.39-3.114,0.861-6.263,1.411-9.446c0.549-3.183,1.212-6.253,1.989-9.207
			c0.78-2.954,1.72-5.507,2.817-7.66c0.275-0.55,0.608-1.099,0.995-1.649c0.391-0.549,0.826-1.064,1.308-1.544
			c0.479-0.483,1.019-0.871,1.614-1.169C229.896,0.148,230.516,0,231.156,0c0.778,0,1.407,0.229,1.89,0.687
			c0.48,0.458,0.859,1.02,1.134,1.682c0.275,0.666,0.456,1.375,0.551,2.13c0.09,0.756,0.136,1.409,0.136,1.959
			c0,5.129-0.766,10.122-2.303,14.976c-1.532,4.855-3.445,9.549-5.734,14.083c-0.549,1.101-1.125,2.177-1.717,3.229
			c-0.599,1.055-1.17,2.107-1.721,3.161c-0.135,0.275-0.309,0.928-0.516,1.957c-0.205,1.031-0.41,2.166-0.616,3.402
			c-0.205,1.236-0.39,2.415-0.55,3.537c-0.16,1.123-0.287,1.914-0.379,2.37c0.413-0.915,0.984-2.048,1.719-3.399
			c0.732-1.352,1.556-2.794,2.474-4.328c0.915-1.535,1.911-3.059,2.989-4.57c1.074-1.509,2.174-2.884,3.297-4.121
			c1.121-1.238,2.266-2.232,3.434-2.988c1.168-0.756,2.279-1.134,3.332-1.134c0.779,0,1.42,0.205,1.924,0.618
			c0.504,0.411,0.904,0.926,1.203,1.544c0.298,0.619,0.503,1.284,0.617,1.993c0.115,0.71,0.173,1.386,0.173,2.027
			c0,2.887-0.217,5.76-0.653,8.621c-0.436,2.863-0.65,5.737-0.65,8.623c0,0.32,0.01,0.666,0.032,1.031
			c0.022,0.367,0.093,0.698,0.208,0.996c0.111,0.298,0.297,0.549,0.549,0.756c0.25,0.205,0.605,0.309,1.063,0.309
			c0.962,0,1.981-0.389,3.058-1.167c1.077-0.778,2.119-1.695,3.125-2.749c1.008-1.053,1.947-2.152,2.818-3.298
			c0.869-1.145,1.532-2.083,1.992-2.816c0.181-0.275,0.421-0.629,0.721-1.064c0.296-0.435,0.652-0.653,1.066-0.653
			c0.41,0,0.686,0.138,0.823,0.411c0.138,0.275,0.206,0.598,0.206,0.964c0,0.229-0.048,0.423-0.137,0.582
			c-0.094,0.161-0.184,0.334-0.275,0.517c-0.687,1.329-1.604,2.771-2.749,4.327c-1.145,1.558-2.428,3.012-3.845,4.363
			c-1.422,1.352-2.943,2.473-4.57,3.367c-1.627,0.893-3.24,1.339-4.842,1.339c-0.964,0-1.684-0.368-2.166-1.099
			c-0.481-0.733-0.838-1.604-1.063-2.611c-0.231-1.006-0.356-2.049-0.381-3.127c-0.022-1.076-0.034-1.934-0.034-2.575
			c0-2.474,0.127-4.946,0.38-7.419c0.25-2.475,0.49-4.948,0.721-7.421v-0.548c0-0.229-0.025-0.561-0.07-0.996
			c-0.045-0.436-0.25-0.654-0.615-0.654C236.697,36.823,236.011,37.304,235.142,38.265z M229.404,5.565
			c-0.665,1.374-1.306,3.136-1.923,5.29c-0.619,2.154-1.191,4.522-1.717,7.11c-0.527,2.588-0.986,5.084-1.376,7.489
			c-0.388,2.404-0.711,4.558-0.962,6.458c-0.25,1.9-0.4,3.24-0.445,4.019c1.053-1.878,2.131-4.053,3.229-6.526
			c1.099-2.474,2.096-5.039,2.989-7.695c0.892-2.656,1.638-5.291,2.232-7.901c0.596-2.611,0.892-4.969,0.892-7.076
			c0-0.138,0-0.388,0-0.756c0-0.365-0.033-0.731-0.102-1.099c-0.068-0.366-0.15-0.687-0.24-0.961
			c-0.094-0.275-0.254-0.413-0.48-0.413C230.767,3.503,230.067,4.19,229.404,5.565z"/>
		<path fill="#FFFFFF" d="M284.64,51.251c-0.391,0.549-0.699,1.008-0.928,1.374c-0.642,0.871-1.42,1.878-2.336,3.021
			c-0.918,1.146-1.912,2.223-2.988,3.229c-1.076,1.008-2.221,1.854-3.436,2.542c-1.213,0.687-2.414,1.032-3.607,1.032
			c-1.145,0-2.061-0.403-2.746-1.204c-0.687-0.801-1.215-1.763-1.583-2.884c-0.365-1.123-0.595-2.291-0.687-3.504
			c-0.09-1.215-0.114-2.233-0.066-3.059c-0.459,0.688-1.043,1.547-1.753,2.577s-1.499,2.025-2.37,2.989
			c-0.871,0.961-1.777,1.785-2.713,2.473c-0.941,0.687-1.867,1.029-2.784,1.029c-0.823,0-1.511-0.25-2.06-0.756
			c-0.549-0.503-0.973-1.121-1.271-1.854c-0.299-0.731-0.504-1.511-0.619-2.336c-0.115-0.823-0.17-1.557-0.17-2.198
			c0-1.786,0.434-3.824,1.305-6.114c0.869-2.29,2.025-4.454,3.47-6.493c1.443-2.035,3.091-3.742,4.945-5.117
			c1.855-1.374,3.79-2.062,5.806-2.062c0.505,0,1.006,0.23,1.512,0.688c0.504,0.458,0.756,0.939,0.756,1.442
			c0,0.229-0.07,0.402-0.207,0.515c-0.137,0.115-0.299,0.218-0.479,0.309c-1.237,0.733-2.417,1.501-3.539,2.302
			s-2.188,1.729-3.194,2.782c-1.787,1.834-3.207,3.882-4.26,6.148c-1.053,2.269-1.58,4.707-1.58,7.316
			c0,0.275,0.045,0.619,0.138,1.032c0.091,0.411,0.344,0.618,0.757,0.618c0.502,0,1.076-0.311,1.717-0.928
			c0.641-0.619,1.306-1.397,1.992-2.336c0.687-0.939,1.362-1.992,2.026-3.161c0.662-1.167,1.292-2.301,1.889-3.399
			c0.595-1.1,1.111-2.118,1.546-3.059c0.436-0.938,0.768-1.635,0.996-2.096c0.229-0.503,0.516-0.971,0.859-1.407
			c0.343-0.436,0.834-0.653,1.477-0.653c0.367,0,0.723,0.067,1.064,0.205c0.344,0.138,0.516,0.437,0.516,0.894
			c0,0.506-0.16,1.169-0.48,1.992c-0.321,0.824-0.574,1.49-0.757,1.992c-0.365,1.191-0.63,2.463-0.79,3.813
			c-0.16,1.352-0.24,2.623-0.24,3.814c0,0.365,0.012,0.916,0.035,1.647c0.023,0.733,0.104,1.478,0.239,2.233
			c0.14,0.756,0.356,1.42,0.653,1.992c0.298,0.572,0.723,0.858,1.271,0.858c0.824,0,1.74-0.366,2.749-1.099
			c1.005-0.732,1.989-1.59,2.953-2.576c0.962-0.984,1.854-2.003,2.681-3.057c0.823-1.053,1.442-1.9,1.854-2.543
			c0.229-0.365,0.479-0.744,0.755-1.134c0.274-0.388,0.665-0.583,1.169-0.583c0.732,0,1.1,0.436,1.1,1.305
			C285.224,50.22,285.028,50.7,284.64,51.251z"/>
		<path fill="#FFFFFF" d="M287.593,62.38c-0.893-0.824-1.66-1.89-2.303-3.194c-0.643-1.306-1.145-2.771-1.512-4.397
			c-0.367-1.625-0.643-3.252-0.823-4.877c-0.185-1.627-0.31-3.148-0.378-4.569c-0.068-1.418-0.102-2.563-0.102-3.435
			c0-4.809,0.388-9.56,1.166-14.255c0.779-4.694,2.131-9.264,4.054-13.707c0.366-0.823,0.87-1.808,1.513-2.953
			c0.641-1.145,1.383-2.256,2.232-3.333c0.847-1.076,1.763-1.98,2.748-2.713c0.982-0.733,1.979-1.099,2.988-1.099
			c0.822,0,1.498,0.195,2.025,0.583c0.526,0.391,0.939,0.893,1.237,1.512c0.298,0.618,0.515,1.294,0.653,2.025
			c0.136,0.733,0.205,1.421,0.205,2.062c0,2.153-0.252,4.489-0.756,7.007c-0.506,2.521-1.166,5.04-1.992,7.557
			c-0.824,2.521-1.742,4.971-2.748,7.351c-1.008,2.383-2.038,4.513-3.09,6.39c-0.504,0.917-1.043,1.798-1.616,2.645
			c-0.573,0.848-1.132,1.729-1.683,2.645c-0.184,0.275-0.4,0.596-0.652,0.962c-0.253,0.367-0.424,0.71-0.516,1.03
			c-0.138,0.369-0.219,0.859-0.241,1.478s-0.033,1.134-0.033,1.546c0,0.687,0.046,1.638,0.137,2.852
			c0.09,1.214,0.298,2.416,0.62,3.607c0.318,1.19,0.756,2.222,1.304,3.091c0.55,0.871,1.305,1.305,2.267,1.305
			c0.826,0,1.717-0.309,2.68-0.927c0.961-0.618,1.89-1.375,2.781-2.268c0.896-0.893,1.717-1.82,2.474-2.781
			c0.755-0.963,1.364-1.765,1.821-2.405c0.32-0.458,0.619-0.929,0.895-1.409c0.272-0.48,0.572-0.949,0.893-1.406
			c0.182-0.275,0.377-0.506,0.584-0.688c0.205-0.183,0.49-0.275,0.858-0.275c0.366,0,0.618,0.128,0.755,0.378
			c0.139,0.253,0.205,0.54,0.205,0.858c0,0.46-0.113,0.894-0.342,1.307c-0.23,0.413-0.459,0.801-0.688,1.167
			c-0.687,1.101-1.545,2.383-2.573,3.848c-1.032,1.466-2.189,2.84-3.473,4.122c-1.283,1.283-2.635,2.37-4.052,3.264
			c-1.421,0.894-2.841,1.339-4.259,1.339C289.573,63.616,288.487,63.204,287.593,62.38z M295.321,8.346
			c-0.642,0.804-1.203,1.73-1.683,2.784c-0.481,1.054-0.894,2.13-1.237,3.229s-0.607,1.923-0.79,2.473
			c-0.962,3.161-1.844,6.538-2.644,10.132c-0.803,3.597-1.204,7.043-1.204,10.34c0,0.368,0,0.711,0,1.031
			c0,0.275,0.022,0.596,0.069,0.961c1.1-1.877,2.277-4.063,3.539-6.561c1.258-2.496,2.402-5.083,3.433-7.764
			c1.032-2.679,1.891-5.347,2.577-8.003c0.688-2.656,1.033-5.083,1.033-7.282c0-0.137,0-0.345,0-0.618
			c0-0.32-0.036-0.618-0.105-0.893c-0.07-0.275-0.17-0.516-0.311-0.721c-0.136-0.207-0.342-0.31-0.617-0.31
			C296.647,7.145,295.962,7.547,295.321,8.346z"/>
		<path fill="#FFFFFF" d="M317.924,48.159c0.55,1.191,0.985,2.451,1.306,3.778c0.321,1.329,0.549,2.657,0.686,3.984
			c0.139,1.329,0.207,2.543,0.207,3.642c0,1.693-0.171,3.652-0.516,5.875c-0.342,2.221-0.951,4.328-1.82,6.32
			s-2.025,3.675-3.471,5.049c-1.44,1.373-3.262,2.061-5.461,2.061c-0.961,0-1.774-0.333-2.438-0.997
			c-0.664-0.663-1.215-1.534-1.65-2.61c-0.435-1.076-0.766-2.266-0.995-3.572c-0.23-1.305-0.4-2.588-0.517-3.848
			c-0.115-1.258-0.182-2.45-0.205-3.571c-0.024-1.124-0.035-2.005-0.035-2.646c0-9.617,0.861-18.949,2.578-27.995
			c1.718-9.046,4.293-18.035,7.729-26.966c0.228-0.503,0.457-1.006,0.687-1.511c0.229-0.504,0.526-0.962,0.892-1.375
			c0.275-0.275,0.631-0.56,1.066-0.858c0.436-0.298,0.904-0.561,1.407-0.791c0.505-0.228,1.007-0.411,1.513-0.548
			c0.504-0.138,0.961-0.206,1.376-0.206c0.641,0,1.087,0.206,1.337,0.618c0.25,0.412,0.379,0.892,0.379,1.442
			c0,0.458-0.059,0.883-0.172,1.272c-0.115,0.388-0.266,0.766-0.447,1.134c-0.596,1.329-1.227,2.644-1.889,3.95
			c-0.666,1.304-1.295,2.622-1.89,3.95c-1.923,4.443-3.618,8.966-5.083,13.569c-1.467,4.603-2.588,9.309-3.367,14.118
			c0.366,0.137,0.849,0.252,1.443,0.343c0.594,0.093,1.213,0.162,1.854,0.206c0.641,0.047,1.271,0.081,1.889,0.104
			c0.619,0.023,1.135,0.033,1.546,0.033c0.596,0,1.171-0.021,1.719-0.067c0.549-0.046,1.099-0.113,1.649-0.206
			c0.365-0.092,0.722-0.172,1.064-0.24c0.344-0.069,0.697-0.104,1.064-0.104c0.275,0,0.538,0.048,0.791,0.138
			c0.25,0.092,0.377,0.322,0.377,0.688c0,0.87-0.24,1.511-0.721,1.923c-0.482,0.412-1.064,0.688-1.752,0.825
			c-0.688,0.136-1.419,0.194-2.199,0.171c-0.779-0.023-1.468-0.035-2.06-0.035C316.662,45.985,317.373,46.968,317.924,48.159z
			 M306.794,56.197c-0.367,3.206-0.551,6.434-0.551,9.687c0,0.504,0.023,1.316,0.071,2.438c0.046,1.123,0.171,2.279,0.376,3.471
			c0.207,1.191,0.506,2.232,0.895,3.125c0.387,0.895,0.902,1.34,1.545,1.34c0.824,0,1.555-0.365,2.198-1.099
			c0.642-0.733,1.19-1.604,1.649-2.61c0.456-1.009,0.836-2.038,1.134-3.092s0.491-1.877,0.583-2.473
			c0.183-0.916,0.311-1.82,0.379-2.714c0.066-0.894,0.102-1.798,0.102-2.714v-0.207c0-1.374-0.125-2.791-0.375-4.258
			c-0.255-1.467-0.655-2.861-1.205-4.192c-0.549-1.327-1.27-2.54-2.164-3.64c-0.891-1.1-2.003-1.992-3.33-2.682
			C307.597,49.784,307.16,52.991,306.794,56.197z"/>
	</g>
	<path fill="#FFFFFF" d="M74.815,19.22c-2.678-8.367-8.681-13.552-17.363-14.994c-7.162-1.188-13.565,0.857-18.797,5.984
		c-2.28-2.253-4.915-3.911-7.991-5.039c-2.328-0.853-4.77-1.285-7.256-1.285c-10.502,0-19.794,7.658-21.615,17.815
		c-1.376,7.684,0.706,14.393,6.186,19.941c5.289,5.354,10.582,10.703,15.877,16.051l12.111,12.24
		c0.086,0.093,0.154,0.203,0.24,0.321c0.103,0.145,0.213,0.298,0.337,0.461l1.792,2.341l2.788-2.896
		c0.43-0.449,0.814-0.852,1.206-1.246c2.719-2.747,5.44-5.488,8.163-8.23c6.222-6.268,12.655-12.747,18.935-19.178
		C75.595,35.188,77.458,27.481,74.815,19.22z M65.801,37.964c-6.265,6.414-12.692,12.887-18.906,19.147
		c-2.724,2.743-5.449,5.488-8.168,8.236c-0.028,0.028-0.056,0.056-0.084,0.083L27.457,54.128
		c-5.293-5.348-10.584-10.695-15.873-16.047c-4.314-4.37-5.885-9.435-4.801-15.487c1.394-7.776,8.541-13.641,16.625-13.641
		c1.89,0,3.745,0.328,5.512,0.976c2.856,1.047,5.222,2.702,7.221,5.026c-1.55,1.181-5.721,2.562-12.721,2.377
		c-0.999-0.029-1.924,0.8-1.952,1.85c-0.028,1.048,0.8,1.923,1.85,1.951c0.434,0.012,0.871,0.018,1.312,0.018
		c5.331,0,10.933-0.89,13.894-3.233l0.003,0.004l0.017-0.02c0.01-0.009,0.021-0.018,0.032-0.026c2.452,5,3.771,10.875,7.712,14.788
		c3.623,3.595,8.777,3.112,12.026-0.677c1.583-1.848-1.094-4.549-2.689-2.688c-4.535,5.29-8.468-1.24-10.162-5.367
		c-1.289-3.142-2.488-6.225-4.176-9.136c4.249-4.677,9.407-6.556,15.336-5.57c6.779,1.127,11.275,5.009,13.365,11.538
		C72.051,27.216,70.644,33.004,65.801,37.964z"/>
</g>
</svg>
